<svg xmlns="http://www.w3.org/2000/svg" viewBox="0 0 366 230"><defs><style>.a{font-size:23px;}.a,.c,.j{font-family:Roboto-Bold, Roboto;font-weight:700;}.b{letter-spacing:-0.01em;}.c{font-size:13px;}.d{letter-spacing:-0.01em;}.e{letter-spacing:-0.01em;}.f{font-size:19px;font-family:Roboto-Regular, Roboto;}.g{letter-spacing:-0.01em;}.h{letter-spacing:0em;}.i{letter-spacing:2.65em;}.k{letter-spacing:1.88em;}.l{letter-spacing:-0.11em;}.m{letter-spacing:2.28em;}.n{letter-spacing:0.98em;}.o,.p{fill:none;stroke-miterlimit:10;}.o{stroke:#999;}.p{stroke:#000;}</style></defs><title>Artboard 8 copycard</title><text class="a" transform="translate(15.32 49.08)"><tspan class="b">T</tspan><tspan x="13.92" y="0">OP 3 Cidades </tspan></text><text class="c" transform="translate(142.32 78.58)">Ob<tspan class="d" x="16.29" y="0">r</tspan><tspan x="20.85" y="0">as não </tspan><tspan x="0" y="15.6">ent</tspan><tspan class="e" x="18.7" y="15.6">r</tspan><tspan x="23.32" y="15.6">egues</tspan></text><path d="M252.1,70.88h-2.83v7.7h-1.9v-7.7h-2.8V69.34h7.53Z"/><path d="M251.46,75.08a4.18,4.18,0,0,1,.22-1.39,3.25,3.25,0,0,1,.62-1.11,3,3,0,0,1,1-.73,3.69,3.69,0,0,1,2.77,0,3,3,0,0,1,1,.73,3.12,3.12,0,0,1,.63,1.11,4.45,4.45,0,0,1,.22,1.39v.14a4.45,4.45,0,0,1-.22,1.39,3.07,3.07,0,0,1-.63,1.1,2.89,2.89,0,0,1-1,.73,3.33,3.33,0,0,1-1.38.27,3.38,3.38,0,0,1-1.39-.27,2.72,2.72,0,0,1-1-.73,3.07,3.07,0,0,1-.63-1.1,4.18,4.18,0,0,1-.22-1.39Zm1.83.14a3.89,3.89,0,0,0,.08.78,1.75,1.75,0,0,0,.25.64,1.26,1.26,0,0,0,.43.43,1.35,1.35,0,0,0,.67.16,1.33,1.33,0,0,0,.65-.16,1.39,1.39,0,0,0,.44-.43,2.19,2.19,0,0,0,.25-.64,3.9,3.9,0,0,0,.07-.78v-.14a3.8,3.8,0,0,0-.07-.77,2.31,2.31,0,0,0-.25-.64,1.35,1.35,0,0,0-.45-.44,1.24,1.24,0,0,0-.66-.16,1.23,1.23,0,0,0-.65.16,1.29,1.29,0,0,0-.43.44,1.82,1.82,0,0,0-.25.64,3.79,3.79,0,0,0-.08.77Z"/><path d="M261.29,70v1.69h1.18v1.35h-1.18v3.42a1.15,1.15,0,0,0,0,.36.48.48,0,0,0,.13.22.51.51,0,0,0,.22.11,1.42,1.42,0,0,0,.31,0l.3,0,.24,0v1.39a3.66,3.66,0,0,1-.5.12,3.76,3.76,0,0,1-.61,0,3,3,0,0,1-.82-.11,1.74,1.74,0,0,1-.62-.36,1.54,1.54,0,0,1-.39-.63,2.53,2.53,0,0,1-.14-.93V73.06h-1V71.71h1V70Z"/><path d="M267.47,78.58a2,2,0,0,1-.19-.62,2.23,2.23,0,0,1-.7.53,2.27,2.27,0,0,1-1,.22,2.51,2.51,0,0,1-.92-.16,2.14,2.14,0,0,1-.74-.42,2,2,0,0,1-.5-.65,2.05,2.05,0,0,1-.17-.83,2.12,2.12,0,0,1,.2-1A1.85,1.85,0,0,1,264,75a2.83,2.83,0,0,1,1-.44,5.18,5.18,0,0,1,1.38-.16h.82V74a1.09,1.09,0,0,0-.25-.76,1,1,0,0,0-.77-.29,1.05,1.05,0,0,0-.72.23.73.73,0,0,0-.27.6h-1.83a1.92,1.92,0,0,1,.2-.84,2.19,2.19,0,0,1,.59-.7,3.07,3.07,0,0,1,.92-.47,3.8,3.8,0,0,1,1.21-.18,3.84,3.84,0,0,1,1.1.16,2.53,2.53,0,0,1,.88.45,2,2,0,0,1,.57.76,2.46,2.46,0,0,1,.21,1v2.91c0,.19,0,.37,0,.52a4.05,4.05,0,0,0,.05.42,2.44,2.44,0,0,0,.08.34l.12.28v.11ZM266,77.3a2,2,0,0,0,.44,0,1.94,1.94,0,0,0,.36-.15,1.13,1.13,0,0,0,.27-.22,1.33,1.33,0,0,0,.19-.24V75.46h-.76a1.91,1.91,0,0,0-.62.08,1.07,1.07,0,0,0-.44.22.91.91,0,0,0-.26.33,1.18,1.18,0,0,0-.08.43.73.73,0,0,0,.24.56A.92.92,0,0,0,266,77.3Z"/><path d="M272.39,78.58h-1.84V68.83h1.84Z"/><path d="M276.86,75.09a5.26,5.26,0,0,1,.18-1.42,3.17,3.17,0,0,1,.52-1.11,2.36,2.36,0,0,1,.85-.72,2.46,2.46,0,0,1,1.14-.26,2.2,2.2,0,0,1,.94.2,2.38,2.38,0,0,1,.72.55v-3.5h1.84v9.75h-1.66l-.09-.73a2.47,2.47,0,0,1-.75.63,2.18,2.18,0,0,1-1,.23,2.37,2.37,0,0,1-1.14-.27,2.41,2.41,0,0,1-.84-.72,3.35,3.35,0,0,1-.52-1.11,5,5,0,0,1-.18-1.38Zm1.83.14a3.84,3.84,0,0,0,.07.78,2,2,0,0,0,.23.63,1.27,1.27,0,0,0,.4.43,1.19,1.19,0,0,0,.62.15,1.23,1.23,0,0,0,1.2-.72V73.79a1.33,1.33,0,0,0-.46-.53,1.39,1.39,0,0,0-.73-.18,1.21,1.21,0,0,0-.62.15,1.3,1.3,0,0,0-.41.43,2.3,2.3,0,0,0-.23.64,4.94,4.94,0,0,0-.07.79Z"/><path d="M287.63,78.71a3.8,3.8,0,0,1-1.43-.26,3.23,3.23,0,0,1-1.07-.71,3.11,3.11,0,0,1-.68-1.06,3.74,3.74,0,0,1-.23-1.3v-.25a4.38,4.38,0,0,1,.23-1.43,3.25,3.25,0,0,1,.64-1.12,2.77,2.77,0,0,1,1-.73,3.16,3.16,0,0,1,1.33-.27,3.28,3.28,0,0,1,1.3.25,2.54,2.54,0,0,1,.95.68,2.91,2.91,0,0,1,.58,1.07,4.56,4.56,0,0,1,.19,1.38v.78h-4.37a1.89,1.89,0,0,0,.18.61,1.65,1.65,0,0,0,.35.47,1.48,1.48,0,0,0,.5.3,1.83,1.83,0,0,0,.64.11,2.24,2.24,0,0,0,.93-.19,1.92,1.92,0,0,0,.73-.58l.9,1a2.56,2.56,0,0,1-1,.85,3.24,3.24,0,0,1-.76.28A3.8,3.8,0,0,1,287.63,78.71Zm-.21-5.64a1.21,1.21,0,0,0-.52.1,1.14,1.14,0,0,0-.39.3,1.28,1.28,0,0,0-.26.44,2.59,2.59,0,0,0-.15.58h2.55v-.14a1.6,1.6,0,0,0-.08-.51,1.16,1.16,0,0,0-.22-.41,1,1,0,0,0-.38-.26A1.35,1.35,0,0,0,287.42,73.07Z"/><path d="M244.74,90.69a5.26,5.26,0,0,1,.18-1.42,3.17,3.17,0,0,1,.52-1.11,2.36,2.36,0,0,1,.85-.72,2.46,2.46,0,0,1,1.14-.26,2.2,2.2,0,0,1,.94.2,2.38,2.38,0,0,1,.72.55v-3.5h1.84v9.75h-1.66l-.09-.73a2.36,2.36,0,0,1-.75.63,2.18,2.18,0,0,1-1,.23,2.37,2.37,0,0,1-1.14-.27,2.41,2.41,0,0,1-.84-.72,3.35,3.35,0,0,1-.52-1.11,5,5,0,0,1-.18-1.38Zm1.83.14a4.71,4.71,0,0,0,.07.78,2,2,0,0,0,.23.63,1.27,1.27,0,0,0,.4.43,1.21,1.21,0,0,0,.62.15,1.23,1.23,0,0,0,1.2-.72V89.39a1.2,1.2,0,0,0-1.19-.71,1.21,1.21,0,0,0-.62.15,1.3,1.3,0,0,0-.41.43,2,2,0,0,0-.22.64,4,4,0,0,0-.08.79Z"/><path d="M252.34,85.53a.93.93,0,0,1,.27-.68,1.09,1.09,0,0,1,.76-.26,1.16,1.16,0,0,1,.42.07.78.78,0,0,1,.32.19,1,1,0,0,1,.21.31.9.9,0,0,1,.07.37,1,1,0,0,1-.07.39.9.9,0,0,1-.21.3.92.92,0,0,1-.32.2,1.33,1.33,0,0,1-.85,0,1,1,0,0,1-.32-.2.9.9,0,0,1-.21-.3A1,1,0,0,1,252.34,85.53Zm1.95,8.65h-1.85V87.31h1.85Z"/><path d="M257.48,87.31l.06.79a2.47,2.47,0,0,1,.86-.68,2.56,2.56,0,0,1,1.12-.24,2.71,2.71,0,0,1,.88.14,1.6,1.6,0,0,1,.69.45,2.1,2.1,0,0,1,.44.81,4.37,4.37,0,0,1,.16,1.23v4.37h-1.84V89.8a1.75,1.75,0,0,0-.07-.55.89.89,0,0,0-.21-.34,1,1,0,0,0-.35-.18,1.65,1.65,0,0,0-.47,0,1.36,1.36,0,0,0-.69.17,1.38,1.38,0,0,0-.47.49v4.84h-1.83V87.31Z"/><path d="M264.87,88.06a2.46,2.46,0,0,1,.8-.64,2.2,2.2,0,0,1,1-.24,2.75,2.75,0,0,1,.93.15,1.71,1.71,0,0,1,.72.46,2.27,2.27,0,0,1,.46.83,4.37,4.37,0,0,1,.16,1.23v4.33h-1.84V89.84a1.71,1.71,0,0,0-.07-.55.9.9,0,0,0-.21-.36.87.87,0,0,0-.35-.2,2.16,2.16,0,0,0-.46,0,1.42,1.42,0,0,0-.72.16,1.32,1.32,0,0,0-.45.46v4.88H263V84.43h1.84Z"/><path d="M273.51,94.31a3.8,3.8,0,0,1-1.43-.26,3.23,3.23,0,0,1-1.07-.71,2.94,2.94,0,0,1-.67-1.06,3.53,3.53,0,0,1-.24-1.3v-.25a4.38,4.38,0,0,1,.23-1.43,3.25,3.25,0,0,1,.64-1.12,2.85,2.85,0,0,1,1-.73,3.19,3.19,0,0,1,1.33-.27,3.33,3.33,0,0,1,1.31.25,2.71,2.71,0,0,1,.95.68,2.89,2.89,0,0,1,.57,1.07,4.55,4.55,0,0,1,.2,1.38v.78H272a1.68,1.68,0,0,0,.19.61,1.62,1.62,0,0,0,.34.47,1.59,1.59,0,0,0,.5.3,1.87,1.87,0,0,0,.64.11,2.18,2.18,0,0,0,.93-.19,1.85,1.85,0,0,0,.73-.58l.9,1a2.88,2.88,0,0,1-.41.46,3.09,3.09,0,0,1-.58.39,3.42,3.42,0,0,1-.76.28A3.83,3.83,0,0,1,273.51,94.31Zm-.21-5.64a1.38,1.38,0,0,0-.52.1,1.14,1.14,0,0,0-.39.3,1.71,1.71,0,0,0-.26.44,2.59,2.59,0,0,0-.15.58h2.56V90a2.48,2.48,0,0,0-.08-.51,1.18,1.18,0,0,0-.23-.41,1,1,0,0,0-.38-.26A1.29,1.29,0,0,0,273.3,88.67Z"/><path d="M277.37,85.53a.93.93,0,0,1,.27-.68,1.09,1.09,0,0,1,.75-.26,1.18,1.18,0,0,1,.43.07.85.85,0,0,1,.32.19,1,1,0,0,1,.21.31.9.9,0,0,1,.07.37,1,1,0,0,1-.07.39.9.9,0,0,1-.21.3,1,1,0,0,1-.32.2,1.33,1.33,0,0,1-.85,0,1.08,1.08,0,0,1-.33-.2,1,1,0,0,1-.2-.3A1,1,0,0,1,277.37,85.53Zm1.94,8.65h-1.84V87.31h1.84Z"/><path d="M284.69,89l-.33,0L284,89a1.86,1.86,0,0,0-.88.18,1.15,1.15,0,0,0-.49.53v4.49h-1.83V87.31h1.73l.05.82a1.94,1.94,0,0,1,.64-.69,1.55,1.55,0,0,1,.89-.26l.31,0,.26.06Z"/><path d="M285.05,90.68a4.45,4.45,0,0,1,.22-1.39,3.12,3.12,0,0,1,.63-1.11,2.84,2.84,0,0,1,1-.73,3.33,3.33,0,0,1,1.38-.27,3.41,3.41,0,0,1,1.39.27,2.92,2.92,0,0,1,1,.73,3.12,3.12,0,0,1,.63,1.11,4.18,4.18,0,0,1,.22,1.39v.14a4.18,4.18,0,0,1-.22,1.39,3.07,3.07,0,0,1-.63,1.1,2.72,2.72,0,0,1-1,.73,3.33,3.33,0,0,1-1.38.27,3.41,3.41,0,0,1-1.39-.27,2.89,2.89,0,0,1-1-.73,3.07,3.07,0,0,1-.63-1.1,4.45,4.45,0,0,1-.22-1.39Zm1.84.14a3.9,3.9,0,0,0,.07.78,2.19,2.19,0,0,0,.25.64,1.29,1.29,0,0,0,.44.43,1.42,1.42,0,0,0,1.31,0,1.29,1.29,0,0,0,.44-.43,1.75,1.75,0,0,0,.25-.64,3.89,3.89,0,0,0,.08-.78v-.14a3.79,3.79,0,0,0-.08-.77,1.82,1.82,0,0,0-.25-.64,1.32,1.32,0,0,0-.44-.44,1.24,1.24,0,0,0-.66-.16,1.21,1.21,0,0,0-.65.16,1.32,1.32,0,0,0-.44.44,2.31,2.31,0,0,0-.25.64,3.8,3.8,0,0,0-.07.77Z"/><path d="M295.66,90.69a5.24,5.24,0,0,1,.19-1.42,3.22,3.22,0,0,1,.56-1.11,2.51,2.51,0,0,1,.87-.72,2.57,2.57,0,0,1,1.16-.26,2.31,2.31,0,0,1,1,.21,1.93,1.93,0,0,1,.73.57l.08-.65h1.66v6.63a3.15,3.15,0,0,1-.24,1.26,2.6,2.6,0,0,1-.68.92,3,3,0,0,1-1,.57,4.34,4.34,0,0,1-1.34.19,4.18,4.18,0,0,1-.68-.06,3.68,3.68,0,0,1-.7-.2,3.61,3.61,0,0,1-.65-.33,2.08,2.08,0,0,1-.53-.49l.81-1.11a2.34,2.34,0,0,0,.74.56,2,2,0,0,0,.92.21,1.58,1.58,0,0,0,1.14-.39A1.49,1.49,0,0,0,300.1,94v-.37a2.21,2.21,0,0,1-.72.53,2.33,2.33,0,0,1-.95.19,2.41,2.41,0,0,1-1.15-.27,2.51,2.51,0,0,1-.87-.72,3.41,3.41,0,0,1-.56-1.11,5,5,0,0,1-.19-1.38Zm1.84.14a3.22,3.22,0,0,0,.08.78,2,2,0,0,0,.25.63,1.5,1.5,0,0,0,.44.43,1.28,1.28,0,0,0,.63.15,1.49,1.49,0,0,0,.73-.16,1.25,1.25,0,0,0,.47-.47V89.3a1.29,1.29,0,0,0-.47-.46,1.42,1.42,0,0,0-.72-.16,1.21,1.21,0,0,0-.62.15,1.42,1.42,0,0,0-.45.43,2.32,2.32,0,0,0-.26.64,3.36,3.36,0,0,0-.08.79Z"/><path d="M307.33,94.18a2,2,0,0,1-.19-.62,2.23,2.23,0,0,1-.7.53,2.27,2.27,0,0,1-1,.22,2.51,2.51,0,0,1-.92-.16,2.28,2.28,0,0,1-.75-.42,2,2,0,0,1-.49-.65,1.9,1.9,0,0,1-.18-.83,2.26,2.26,0,0,1,.2-1,2,2,0,0,1,.6-.71,3,3,0,0,1,1-.44,5.13,5.13,0,0,1,1.38-.16h.82v-.39a1.09,1.09,0,0,0-.25-.76,1,1,0,0,0-.77-.29,1.1,1.1,0,0,0-.73.23.75.75,0,0,0-.26.6h-1.83a1.79,1.79,0,0,1,.2-.84,2.19,2.19,0,0,1,.59-.7,3,3,0,0,1,.92-.47,3.8,3.8,0,0,1,1.21-.18,3.9,3.9,0,0,1,1.1.16,2.53,2.53,0,0,1,.88.45,2.09,2.09,0,0,1,.57.76,2.46,2.46,0,0,1,.21,1v2.91a4.1,4.1,0,0,0,0,.52,4.05,4.05,0,0,0,.05.42,2.44,2.44,0,0,0,.08.34,1.39,1.39,0,0,0,.12.28v.11Zm-1.52-1.28a2,2,0,0,0,.44-.05,1.6,1.6,0,0,0,.35-.15,1,1,0,0,0,.28-.22,1.33,1.33,0,0,0,.19-.24V91.06h-.76a2,2,0,0,0-.63.08,1.09,1.09,0,0,0-.43.22.91.91,0,0,0-.26.33,1.18,1.18,0,0,0-.08.43.73.73,0,0,0,.24.56A.92.92,0,0,0,305.81,92.9Z"/><path d="M314,92.28A.55.55,0,0,0,314,92a.53.53,0,0,0-.22-.23,1.74,1.74,0,0,0-.43-.2,4.65,4.65,0,0,0-.7-.18,8.11,8.11,0,0,1-1-.29,2.85,2.85,0,0,1-.77-.43,1.69,1.69,0,0,1-.51-.59,1.61,1.61,0,0,1-.19-.78,2,2,0,0,1,.19-.82,2.32,2.32,0,0,1,.54-.68,2.71,2.71,0,0,1,.86-.46,3.49,3.49,0,0,1,1.16-.18,4.09,4.09,0,0,1,1.2.17,2.73,2.73,0,0,1,.9.46,2,2,0,0,1,.57.7,2,2,0,0,1,.2.89H314a.89.89,0,0,0-.26-.65,1.07,1.07,0,0,0-.79-.26,1.1,1.1,0,0,0-.72.21.66.66,0,0,0-.25.53.54.54,0,0,0,.06.27.77.77,0,0,0,.22.22,1.42,1.42,0,0,0,.39.18,3.75,3.75,0,0,0,.6.15,8.72,8.72,0,0,1,1,.27,3,3,0,0,1,.82.41,1.85,1.85,0,0,1,.54.61,1.8,1.8,0,0,1,.2.87,1.86,1.86,0,0,1-.2.84,2.13,2.13,0,0,1-.58.66,3.08,3.08,0,0,1-.91.44,4.47,4.47,0,0,1-1.2.16,3.52,3.52,0,0,1-1.27-.21,2.8,2.8,0,0,1-.93-.53,2.2,2.2,0,0,1-.57-.74A1.93,1.93,0,0,1,310,92h1.74a1.11,1.11,0,0,0,.11.46.93.93,0,0,0,.28.31,1.22,1.22,0,0,0,.4.18A1.84,1.84,0,0,0,313,93a1.37,1.37,0,0,0,.8-.2A.64.64,0,0,0,314,92.28Z"/><path d="M319.2,85.62v1.69h1.17v1.35H319.2v3.42a1.19,1.19,0,0,0,0,.36.49.49,0,0,0,.14.22.47.47,0,0,0,.21.11,1.42,1.42,0,0,0,.31,0l.3,0,.24,0v1.39a3.33,3.33,0,0,1-.5.12,3.67,3.67,0,0,1-.61,0,2.88,2.88,0,0,1-.81-.11,1.54,1.54,0,0,1-1-1,2.76,2.76,0,0,1-.14-.93V88.66h-1V87.31h1V85.62Z"/><path d="M320.92,90.68a4.45,4.45,0,0,1,.21-1.39,3.45,3.45,0,0,1,.63-1.11,3,3,0,0,1,1-.73,3.69,3.69,0,0,1,2.77,0,3,3,0,0,1,1,.73,3.45,3.45,0,0,1,.63,1.11,4.45,4.45,0,0,1,.21,1.39v.14a4.45,4.45,0,0,1-.21,1.39,3.4,3.4,0,0,1-.63,1.1,2.89,2.89,0,0,1-1,.73,3.38,3.38,0,0,1-1.39.27,3.33,3.33,0,0,1-1.38-.27,2.72,2.72,0,0,1-1-.73,3.25,3.25,0,0,1-.64-1.1,4.45,4.45,0,0,1-.21-1.39Zm1.83.14a3.89,3.89,0,0,0,.08.78,1.94,1.94,0,0,0,.24.64,1.39,1.39,0,0,0,.44.43,1.44,1.44,0,0,0,1.32,0,1.5,1.5,0,0,0,.44-.43,1.94,1.94,0,0,0,.24-.64,3.89,3.89,0,0,0,.08-.78v-.14a3.79,3.79,0,0,0-.08-.77,2,2,0,0,0-.24-.64,1.45,1.45,0,0,0-.45-.44,1.24,1.24,0,0,0-.66-.16,1.23,1.23,0,0,0-.65.16,1.42,1.42,0,0,0-.44.44,2,2,0,0,0-.24.64,3.79,3.79,0,0,0-.08.77Z"/><text class="f" transform="translate(15.32 140.08)">São <tspan class="g" x="37.15" y="0">P</tspan><tspan class="h" x="49.03" y="0">aulo </tspan><tspan class="i" x="89.99" y="0">	</tspan><tspan class="j" x="145.02" y="0">82</tspan><tspan class="k" x="166.82" y="0">	</tspan><tspan x="207.32" y="0">R$ 8.517.765 mi</tspan><tspan class="l" x="0" y="37.8">F</tspan><tspan x="8.33" y="37.8">. da Rocha</tspan><tspan class="m" x="97.07" y="37.8">	</tspan><tspan class="j" x="145.02" y="37.8">25</tspan><tspan class="k" x="166.82" y="37.8">	</tspan><tspan x="207.32" y="37.8">R$ 17.504 mi</tspan><tspan x="0" y="75.6">S. de </tspan><tspan class="g" x="46.46" y="75.6">P</tspan><tspan class="h" x="58.34" y="75.6">arnaíba</tspan><tspan class="n" x="121.61" y="75.6">	</tspan><tspan class="j" x="145.02" y="75.6">21</tspan><tspan class="k" x="166.82" y="75.6">	</tspan><tspan x="207.32" y="75.6" xml:space="preserve"> R$  30.091 mi</tspan></text><line class="o" x1="15.32" y1="153" x2="359" y2="153"/><line class="o" x1="15.32" y1="190" x2="359" y2="190"/><polyline class="p" points="200 105 186 105 177 114 168.5 105.5 144 105.5"/><text class="c" transform="translate(15.32 93.75)">Municípios</text><polyline class="p" points="73 105 59 105 50 114 41.5 105.5 17 105.5"/><polyline class="p" points="360 105 273 105 264 114 255.5 105.5 227 105.5"/></svg>